# xmcd
#
# Track frame offsets: 
#        182
#        17720
#        29180
#        46565
#        60987
#        74642
#        86850
#        102545
#        115542
#        128835
#        144850
#        161705
#
# Disc length: 2430 seconds
#
# Revision: 3
# Processed by: cddbd v1.5.2PL0 Copyright (c) Steve Scherf et al.
# Submitted via: ExactAudioCopy v0.95a5
#
DISCID=a2097c0c
DTITLE=Ricky Skaggs - My Father's Son
DYEAR=1992
DGENRE=Country
TTITLE0=Life's Too Long (To Live Like This)
TTITLE1=Only Daddy That'll Walk the Line
TTITLE2=Same Ol' Love
TTITLE3=From the Word Love
TTITLE4=You Don't Count the Cost
TTITLE5=My Father's Son
TTITLE6=Simple Life
TTITLE7=Hold on Tight (Let it Go) (with Sharon White)
TTITLE8=You Can't Take It with You When You Go
TTITLE9=Father Knows Best
TTITLE10=Give Us a Happy Home
TTITLE11=Somebody's Prayin'
EXTD=
EXTT0=
EXTT1=
EXTT2=
EXTT3=
EXTT4=
EXTT5=
EXTT6=
EXTT7=
EXTT8=
EXTT9=
EXTT10=
EXTT11=
PLAYORDER=
